<?xml version="1.0" encoding="utf-8"?>
<!-- Generator: Adobe Illustrator 15.0.2, SVG Export Plug-In . SVG Version: 6.00 Build 0)  -->
<!DOCTYPE svg PUBLIC "-//W3C//DTD SVG 1.1//EN" "http://www.w3.org/Graphics/SVG/1.1/DTD/svg11.dtd">
<svg version="1.1" id="Layer_1" xmlns="http://www.w3.org/2000/svg" xmlns:xlink="http://www.w3.org/1999/xlink" x="0px" y="0px"
	 width="300px" height="300px" viewBox="0 0 300 300" enable-background="new 0 0 300 300" xml:space="preserve">
<g>
	<path fill="#115780" d="M150,0C67.156,0,0,67.162,0,150c0,82.846,67.156,150,150,150c82.84,0,150-67.154,150-150
		C300,67.162,232.84,0,150,0z"/>
	<path fill="#D07C40" d="M57.012,89.955h186.064v149.928H57.197L57.012,89.955z"/>
	<g>
		<path fill="#EFC75E" d="M252.008,126.045c0,0.076-203.83-0.061-204.023,0v113.756c0.004,0.012-0.021,9-0.053,20.08
			C74.705,284.76,110.564,300,150,300c39.367,0,75.17-15.182,101.93-39.984c-0.094-11.127-0.17-20.168-0.164-20.172
			C251.766,192.662,252.008,126.045,252.008,126.045z M225.064,102.027v19.563l18.012-3.51V89.955L225.064,102.027z M75.029,120.068
			v-18.041L57.011,89.955v29.951L75.029,120.068z"/>
	</g>
	<path fill="#DBA250" d="M75.029,126.045v-24.018l-27.045,24.018H75.029z M225.064,102.027v24.018h26.94L225.064,102.027z"/>
	<path fill="#CBA950" d="M213.193,172.676c0-2.514-2.174-4.758-4.688-4.758c-2.514,0-4.944,2.244-4.944,4.758
		c-0.013,30.473-22.925,55.178-53.4,55.178c-30.48,0-53.988-24.701-54.004-55.178c0-2.514-2.131-4.758-4.648-4.758
		c-2.516,0-4.969,2.244-4.969,4.758c0,35.807,27.824,64.822,63.627,64.822C185.965,237.498,213.193,208.477,213.193,172.676
		L213.193,172.676z"/>
	<path fill="#D07C40" d="M91.416,158.965c-4.109,0-7.439,3.328-7.439,7.438c0,4.111,3.33,7.439,7.439,7.439s7.535-3.33,7.535-7.439
		C98.949,162.299,95.523,158.965,91.416,158.965z M208.418,158.965c-4.113,0-7.438,3.328-7.438,7.438
		c0,4.111,3.324,7.439,7.438,7.439c4.107,0,7.535-3.33,7.535-7.439C215.947,162.299,212.523,158.965,208.418,158.965z"/>
	<path fill="#FFFFFF" d="M213.193,169.676c0-2.514-2.174-4.758-4.688-4.758c-2.514,0-4.944,2.244-4.944,4.758
		c-0.013,30.473-22.925,55.178-53.4,55.178c-30.48,0-53.988-24.701-54.004-55.178c0-2.514-2.131-4.758-4.648-4.758
		c-2.516,0-4.969,2.244-4.969,4.758c0,35.807,27.824,64.822,63.627,64.822C185.965,234.498,213.193,205.477,213.193,169.676
		L213.193,169.676z"/>
</g>
</svg>
